<?xml version="1.0" standalone="no"?>
<!DOCTYPE svg PUBLIC "-//W3C//DTD SVG 1.1//EN" 
  "http://www.w3.org/Graphics/SVG/1.1/DTD/svg11.dtd">
<svg width="22" height="22" xmlns="http://www.w3.org/2000/svg">
 <!-- Created with SVG-edit - http://svg-edit.googlecode.com/ -->
 <g>
  <title>Aircraft</title>
  <path stroke="null" fill="#999999" fill-rule="nonzero" id="svg_6" d="m9.884511,4.806982l0.008903,2.143433l-2.407839,1.813563l-0.000368,-0.870898l-0.80433,-0.000302l0.000637,1.502622l-2.464905,1.921432l0.002307,-0.733557l-0.733522,-0.000275l0.000552,1.302803l-3.033427,2.413773l-0.270511,1.155363l6.663925,-3.364048l3.03415,-0.752722l0.056542,4.974106l0.596362,2.361605l-3.165209,2.214918l0.000396,0.949608l3.63279,-0.714149l3.622501,0.714806l-0.000411,-0.949621l-3.167105,-2.217236l0.594353,-2.361183l0.052281,-4.974053l3.034786,0.754946l6.6668,3.368963l-0.271503,-1.155574l-3.035492,-2.415997l-0.000553,-1.303814l-0.699938,-0.000257l0.002337,0.767072l-2.499537,-1.95576l-0.000651,-1.502608l-0.804316,-0.000302l0.000367,0.870891l-2.471302,-1.815348l-0.000666,-2.14342c-0.000367,-0.872361 0.032991,-3.59172 -1.026621,-4.776663c-1.023268,1.351705 -1.056952,3.13168 -1.111782,4.777883z"/>
 </g>
</svg>