{"accessors":{"accessor_102":{"bufferView":"bufferView_306","byteOffset":2092,"byteStride":0,"componentType":5123,"count":2,"type":"SCALAR"},"accessor_104":{"bufferView":"bufferView_307","byteOffset":5712,"byteStride":12,"componentType":5126,"count":2,"max":[0.998799,2.17511,2.40543],"min":[0.998741,2.1668,2.40257],"type":"VEC3"},"accessor_120":{"bufferView":"bufferView_306","byteOffset":2096,"byteStride":0,"componentType":5123,"count":48,"type":"SCALAR"},"accessor_122":{"bufferView":"bufferView_307","byteOffset":5736,"byteStride":12,"componentType":5126,"count":32,"max":[8.57351,12.7889,7.21911e-16],"min":[0,-0.330507,-0.454028],"type":"VEC3"},"accessor_124":{"bufferView":"bufferView_307","byteOffset":6120,"byteStride":12,"componentType":5126,"count":32,"max":[1,1,1],"min":[-0.815462,-0.808477,-0.999452],"type":"VEC3"},"accessor_140":{"bufferView":"bufferView_306","byteOffset":2192,"byteStride":0,"componentType":5123,"count":48,"type":"SCALAR"},"accessor_142":{"bufferView":"bufferView_307","byteOffset":6504,"byteStride":12,"componentType":5126,"count":32,"max":[8.57351,12.7889,7.21911e-16],"min":[0,-0.330507,-0.454028],"type":"VEC3"},"accessor_144":{"bufferView":"bufferView_307","byteOffset":6888,"byteStride":12,"componentType":5126,"count":32,"max":[1,1,1],"min":[-0.815462,-0.808477,-0.999452],"type":"VEC3"},"accessor_16":{"bufferView":"bufferView_306","byteOffset":336,"byteStride":0,"componentType":5123,"count":87,"type":"SCALAR"},"accessor_160":{"bufferView":"bufferView_306","byteOffset":2288,"byteStride":0,"componentType":5123,"count":36,"type":"SCALAR"},"accessor_162":{"bufferView":"bufferView_307","byteOffset":7272,"byteStride":12,"componentType":5126,"count":30,"max":[3.77876,5.83656,0],"min":[-0.138085,-0.562325,-0.329573],"type":"VEC3"},"accessor_164":{"bufferView":"bufferView_307","byteOffset":7632,"byteStride":12,"componentType":5126,"count":30,"max":[0.977909,1,1],"min":[-0.87811,-0.959881,-0.999499],"type":"VEC3"},"accessor_18":{"bufferView":"bufferView_307","byteOffset":1536,"byteStride":12,"componentType":5126,"count":37,"max":[0.189349,0.350553,1.44755],"min":[-1.11558,-0.447959,0.915733],"type":"VEC3"},"accessor_180":{"bufferView":"bufferView_306","byteOffset":2360,"byteStride":0,"componentType":5123,"count":36,"type":"SCALAR"},"accessor_182":{"bufferView":"bufferView_307","byteOffset":7992,"byteStride":12,"componentType":5126,"count":30,"max":[3.77876,5.83656,0],"min":[-0.138085,-0.562325,-0.329573],"type":"VEC3"},"accessor_184":{"bufferView":"bufferView_307","byteOffset":8352,"byteStride":12,"componentType":5126,"count":30,"max":[0.977909,1,1],"min":[-0.87811,-0.959881,-0.999499],"type":"VEC3"},"accessor_20":{"bufferView":"bufferView_307","byteOffset":1980,"byteStride":12,"componentType":5126,"count":37,"max":[1,1,1],"min":[-1,-1,-2.27419e-16],"type":"VEC3"},"accessor_200":{"bufferView":"bufferView_306","byteOffset":2432,"byteStride":0,"componentType":5123,"count":168,"type":"SCALAR"},"accessor_202":{"bufferView":"bufferView_307","byteOffset":8712,"byteStride":12,"componentType":5126,"count":64,"max":[0.352044,0.88011,0.88011],"min":[-0.047244,-0.11811,-0.11811],"type":"VEC3"},"accessor_204":{"bufferView":"bufferView_307","byteOffset":9480,"byteStride":12,"componentType":5126,"count":64,"max":[1,1,1],"min":[-1,-1,-1],"type":"VEC3"},"accessor_220":{"bufferView":"bufferView_306","byteOffset":2876,"byteStride":0,"componentType":5123,"count":288,"type":"SCALAR"},"accessor_222":{"bufferView":"bufferView_307","byteOffset":10920,"byteStride":12,"componentType":5126,"count":90,"max":[4.04177,1.69869,1.61555],"min":[0,0,0],"type":"VEC3"},"accessor_224":{"bufferView":"bufferView_307","byteOffset":12000,"byteStride":12,"componentType":5126,"count":90,"max":[1,0.993993,0.945344],"min":[-1,-0.993993,-0.945344],"type":"VEC3"},"accessor_240":{"bufferView":"bufferView_306","byteOffset":3452,"byteStride":0,"componentType":5123,"count":24,"type":"SCALAR"},"accessor_242":{"bufferView":"bufferView_307","byteOffset":13080,"byteStride":12,"componentType":5126,"count":10,"max":[0.315912,1.39476,1.3265],"min":[0.315912,0.303926,0.289052],"type":"VEC3"},"accessor_244":{"bufferView":"bufferView_307","byteOffset":13200,"byteStride":12,"componentType":5126,"count":10,"max":[-1,-5.23538e-15,1.50664e-30],"min":[-1,-5.23538e-15,1.50664e-30],"type":"VEC3"},"accessor_260":{"bufferView":"bufferView_306","byteOffset":3500,"byteStride":0,"componentType":5123,"count":60,"type":"SCALAR"},"accessor_262":{"bufferView":"bufferView_307","byteOffset":13320,"byteStride":12,"componentType":5126,"count":20,"max":[0.315912,1.39476,1.3265],"min":[0,0.303926,0.289052],"type":"VEC3"},"accessor_264":{"bufferView":"bufferView_307","byteOffset":13560,"byteStride":12,"componentType":5126,"count":20,"max":[5.23538e-15,1,0.951056],"min":[-5.23538e-15,-1,-0.951056],"type":"VEC3"},"accessor_280":{"bufferView":"bufferView_306","byteOffset":3620,"byteStride":0,"componentType":5123,"count":42,"type":"SCALAR"},"accessor_282":{"bufferView":"bufferView_307","byteOffset":13800,"byteStride":12,"componentType":5126,"count":18,"max":[0.1524,0.175976,1.92067],"min":[0,0,0],"type":"VEC3"},"accessor_284":{"bufferView":"bufferView_307","byteOffset":14016,"byteStride":12,"componentType":5126,"count":18,"max":[1,0.866025,1],"min":[-1,-0.866025,-1],"type":"VEC3"},"accessor_300":{"bufferView":"bufferView_306","byteOffset":0,"byteStride":0,"componentType":5123,"count":168,"type":"SCALAR"},"accessor_302":{"bufferView":"bufferView_307","byteOffset":0,"byteStride":12,"componentType":5126,"count":64,"max":[0.278892,0.69723,0.69723],"min":[0.025908,0.06477,0.06477],"type":"VEC3"},"accessor_304":{"bufferView":"bufferView_307","byteOffset":768,"byteStride":12,"componentType":5126,"count":64,"max":[1,1,1],"min":[-1,-1,-1],"type":"VEC3"},"accessor_36":{"bufferView":"bufferView_306","byteOffset":510,"byteStride":0,"componentType":5123,"count":3,"type":"SCALAR"},"accessor_38":{"bufferView":"bufferView_307","byteOffset":2424,"byteStride":12,"componentType":5126,"count":3,"max":[0.0822526,0.0392836,1.44755],"min":[-0.0701474,-0.136693,1.44755],"type":"VEC3"},"accessor_40":{"bufferView":"bufferView_307","byteOffset":2460,"byteStride":12,"componentType":5126,"count":3,"max":[0,0,1],"min":[0,0,1],"type":"VEC3"},"accessor_56":{"bufferView":"bufferView_306","byteOffset":2768,"byteStride":0,"componentType":5123,"count":54,"type":"SCALAR"},"accessor_58":{"bufferView":"bufferView_307","byteOffset":10248,"byteStride":12,"componentType":5126,"count":28,"max":[8.98888,0.2794,5.94624],"min":[-5.7753e-15,-0.2794,0],"type":"VEC3"},"accessor_60":{"bufferView":"bufferView_307","byteOffset":10584,"byteStride":12,"componentType":5126,"count":28,"max":[0.974697,0.999794,1],"min":[-0.750331,-0.999794,-0.223529],"type":"VEC3"},"accessor_76":{"bufferView":"bufferView_306","byteOffset":516,"byteStride":0,"componentType":5123,"count":786,"type":"SCALAR"},"accessor_78":{"bufferView":"bufferView_307","byteOffset":2496,"byteStride":12,"componentType":5126,"count":133,"max":[35.5305,3.54279,4.0259],"min":[0,0,0],"type":"VEC3"},"accessor_80":{"bufferView":"bufferView_307","byteOffset":4092,"byteStride":12,"componentType":5126,"count":133,"max":[0.807519,0.999954,0.999997],"min":[-0.847647,-0.999954,-0.999909],"type":"VEC3"},"accessor_90":{"bufferView":"bufferView_306","byteOffset":2088,"byteStride":0,"componentType":5123,"count":2,"type":"SCALAR"},"accessor_92":{"bufferView":"bufferView_307","byteOffset":5688,"byteStride":12,"componentType":5126,"count":2,"max":[1.84285,1.73956,3.36243],"min":[1.84271,1.73926,3.36238],"type":"VEC3"}},"animations":{},"asset":{"generator":"collada2gltf@","premultipliedAlpha":true,"profile":"WebGL 1.0.2","version":0.8},"bufferViews":{"bufferView_306":{"buffer":"model","byteLength":3704,"byteOffset":0,"target":34963},"bufferView_307":{"buffer":"model","byteLength":14232,"byteOffset":3704,"target":34962}},"buffers":{"model":{"byteLength":17936,"type":"arraybuffer","uri":"data:application/octet-stream;base64,"}},"materials":{"effect_ID23":{"instanceTechnique":{"technique":"technique0","values":{}},"name":"edge_color000255"},"effect_ID67":{"instanceTechnique":{"technique":"technique1","values":{"ambient":[0.137255,0.137255,0.137255,1],"diffuse":[0.137255,0.137255,0.137255,1]}},"name":"__Charcoal_1"},"effect_ID9":{"instanceTechnique":{"technique":"technique1","values":{"ambient":[1,1,1,1],"diffuse":[1,1,1,1]}},"name":"material"}},"meshes":{"ID106":{"name":"ID106","primitives":[{"attributes":{"NORMAL":"accessor_304","POSITION":"accessor_302"},"indices":"accessor_300","material":"effect_ID67","primitive":4}]},"ID125":{"name":"ID125","primitives":[{"attributes":{"NORMAL":"accessor_20","POSITION":"accessor_18"},"indices":"accessor_16","material":"effect_ID9","primitive":4}]},"ID131":{"name":"ID131","primitives":[{"attributes":{"NORMAL":"accessor_40","POSITION":"accessor_38"},"indices":"accessor_36","material":"effect_ID9","primitive":4}]},"ID16":{"name":"ID16","primitives":[{"attributes":{"NORMAL":"accessor_80","POSITION":"accessor_78"},"indices":"accessor_76","material":"effect_ID9","primitive":4}]},"ID22":{"name":"ID22","primitives":[{"attributes":{"POSITION":"accessor_92"},"indices":"accessor_90","material":"effect_ID23","primitive":1}]},"ID28":{"name":"ID28","primitives":[{"attributes":{"POSITION":"accessor_104"},"indices":"accessor_102","material":"effect_ID23","primitive":1}]},"ID34":{"name":"ID34","primitives":[{"attributes":{"NORMAL":"accessor_124","POSITION":"accessor_122"},"indices":"accessor_120","material":"effect_ID9","primitive":4}]},"ID42":{"name":"ID42","primitives":[{"attributes":{"NORMAL":"accessor_144","POSITION":"accessor_142"},"indices":"accessor_140","material":"effect_ID9","primitive":4}]},"ID50":{"name":"ID50","primitives":[{"attributes":{"NORMAL":"accessor_164","POSITION":"accessor_162"},"indices":"accessor_160","material":"effect_ID9","primitive":4}]},"ID58":{"name":"ID58","primitives":[{"attributes":{"NORMAL":"accessor_184","POSITION":"accessor_182"},"indices":"accessor_180","material":"effect_ID9","primitive":4}]},"ID66":{"name":"ID66","primitives":[{"attributes":{"NORMAL":"accessor_204","POSITION":"accessor_202"},"indices":"accessor_200","material":"effect_ID67","primitive":4}]},"ID7":{"name":"ID7","primitives":[{"attributes":{"NORMAL":"accessor_60","POSITION":"accessor_58"},"indices":"accessor_56","material":"effect_ID9","primitive":4}]},"ID77":{"name":"ID77","primitives":[{"attributes":{"NORMAL":"accessor_224","POSITION":"accessor_222"},"indices":"accessor_220","material":"effect_ID9","primitive":4}]},"ID83":{"name":"ID83","primitives":[{"attributes":{"NORMAL":"accessor_244","POSITION":"accessor_242"},"indices":"accessor_240","material":"effect_ID67","primitive":4}]},"ID89":{"name":"ID89","primitives":[{"attributes":{"NORMAL":"accessor_264","POSITION":"accessor_262"},"indices":"accessor_260","material":"effect_ID9","primitive":4}]},"ID97":{"name":"ID97","primitives":[{"attributes":{"NORMAL":"accessor_284","POSITION":"accessor_282"},"indices":"accessor_280","material":"effect_ID67","primitive":4}]}},"nodes":{"Commercial_airliner":{"children":["node68","node69","ID6","group_1","ID32","instance_3","instance_4","instance_5","instance_6","ID74","ID75","ID95","ID103","ID104","ID112","ID113","ID114","ID115","ID116","ID117","ID118","ID119","ID120","ID121","ID122","ID123","ID124"],"matrix":[1,0,0,0,0,1,0,0,0,0,1,0,0,0,0,1],"name":"Commercial_airliner"},"Component_2":{"children":[],"matrix":[1,0,0,0,0,1,0,0,0,0,1,0,0,0,0,1],"meshes":["ID97"],"name":"Component_2"},"ID103":{"children":["Component_2"],"matrix":[1,0,0,0,0,1,0,0,0,0,1,0,14.2221,-2.72766,0.31623,1],"name":"instance_10"},"ID104":{"children":["ID105"],"matrix":[6.93889e-17,1,0,0,-1,6.93889e-17,0,0,0,0,1,0,0.381,-0.025908,-0.06477,1],"name":"instance_11"},"ID105":{"children":[],"matrix":[1,0,0,0,0,1,0,0,0,0,1,0,0,0,0,1],"meshes":["ID106"],"name":"wheel_2"},"ID112":{"children":["engine"],"matrix":[1.32,0,0,0,0,1.32,0,0,0,0,1.32,0,9.16983,3.52963,0.267134,1],"name":"instance_12"},"ID113":{"children":["node81"],"matrix":[1,0,0,0,0,1,0,0,0,0,1,0,14.2221,2.44917,0.31623,1],"name":"instance_13"},"ID114":{"children":["wheel_2"],"matrix":[6.93889e-17,1,0,0,-1,6.93889e-17,0,0,0,0,1,0,0.381,-0.380492,-0.06477,1],"name":"instance_14"},"ID115":{"children":["node82"],"matrix":[6.93889e-17,1,0,0,-1,6.93889e-17,0,0,0,0,1,0,14.6748,-3.07307,0.11811,1],"name":"instance_15"},"ID116":{"children":["node83"],"matrix":[6.93889e-17,1,0,0,-1,6.93889e-17,0,0,0,0,1,0,14.6748,-2.51427,0.11811,1],"name":"instance_16"},"ID117":{"children":["node84"],"matrix":[6.93889e-17,1,0,0,-1,6.93889e-17,0,0,0,0,1,0,15.6949,-3.07307,0.11811,1],"name":"instance_17"},"ID118":{"children":["node85"],"matrix":[6.93889e-17,1,0,0,-1,6.93889e-17,0,0,0,0,1,0,15.6949,-2.51427,0.11811,1],"name":"instance_18"},"ID119":{"children":["node86"],"matrix":[6.93889e-17,1,0,0,-1,6.93889e-17,0,0,0,0,1,0,15.6949,2.66255,0.11811,1],"name":"instance_19"},"ID120":{"children":["node87"],"matrix":[6.93889e-17,1,0,0,-1,6.93889e-17,0,0,0,0,1,0,15.6949,2.10376,0.11811,1],"name":"instance_20"},"ID121":{"children":["node88"],"matrix":[6.93889e-17,1,0,0,-1,6.93889e-17,0,0,0,0,1,0,13.6449,2.10376,0.11811,1],"name":"instance_21"},"ID122":{"children":["node89"],"matrix":[6.93889e-17,1,0,0,-1,6.93889e-17,0,0,0,0,1,0,13.6449,2.66255,0.11811,1],"name":"instance_22"},"ID123":{"children":["node90"],"matrix":[6.93889e-17,1,0,0,-1,6.93889e-17,0,0,0,0,1,0,13.6449,-2.51427,0.11811,1],"name":"instance_23"},"ID124":{"children":["node91"],"matrix":[6.93889e-17,1,0,0,-1,6.93889e-17,0,0,0,0,1,0,13.6449,-3.07307,0.11811,1],"name":"instance_24"},"ID3":{"children":["instance_1"],"matrix":[1,0,0,0,0,1,0,0,0,0,1,0,0,0,0,1],"name":"Untitled"},"ID32":{"children":["wing"],"matrix":[1,-1.34641e-32,1.59409e-32,0,1.21719e-32,0.996917,0.0784591,0,-1.69482e-32,-0.0784591,0.996917,0,10.3798,1.59265,2.39383,1],"name":"instance_2"},"ID41":{"children":[],"matrix":[1,0,0,0,0,1,0,0,0,0,1,0,0,0,0,1],"meshes":["ID42"],"name":"wing"},"ID6":{"children":[],"matrix":[1,0,0,0,0,1,0,0,0,0,1.21,0,21.9997,-0.0458704,3.89473,1],"meshes":["ID7"],"name":"group_0"},"ID74":{"children":["node74"],"matrix":[6.93889e-17,1,0,0,-1,6.93889e-17,0,0,0,0,1,0,14.6748,2.66255,0.11811,1],"name":"instance_7"},"ID75":{"children":["ID76"],"matrix":[1.3668,0,0,0,0,1.3668,0,0,0,0,1.3668,0,9.03069,-5.86931,0.289951,1],"name":"instance_8"},"ID76":{"children":["node75","node76","node77"],"matrix":[1,0,0,0,0,1,0,0,0,0,1,0,0,0,0,1],"name":"engine"},"ID95":{"children":["ID96"],"matrix":[1,0,0,0,0,1,0,0,0,0,1,0,-0.0701474,-0.136693,0.31623,1],"name":"instance_9"},"ID96":{"children":[],"matrix":[1,0,0,0,0,1,0,0,0,0,1,0,0,0,0,1],"meshes":["ID97"],"name":"Component_2"},"SketchUp":{"children":["instance_0"],"matrix":[1,0,0,0,0,1,0,0,0,0,1,0,0,0,0,1],"name":"SketchUp"},"engine":{"children":["node78","node79","node80"],"matrix":[1,0,0,0,0,1,0,0,0,0,1,0,0,0,0,1],"name":"engine"},"group_1":{"children":["node70","node71","node72"],"matrix":[1,0,0,0,0,1,0,0,0,0,1,0,-3.31752,-1.81727,1.02092,1],"name":"group_1"},"instance_0":{"children":["ID3"],"matrix":[-8.32667e-17,1,0,0,-1,-8.32667e-17,0,0,0,0,1,0,6.98236,-12.386,0,1],"name":"instance_0"},"instance_1":{"children":["Commercial_airliner"],"matrix":[1.4994,0,0,0,0,1.4994,0,0,0,0,1.4994,0,-7.4424,7.0551,-3.60957e-16,1],"name":"instance_1"},"instance_3":{"children":["ID41"],"matrix":[1,1.33244e-17,9.8271e-18,0,1.25123e-17,-0.996917,0.0784591,0,-1.08422e-17,0.0784591,0.996917,0,10.3798,-1.68439,2.39383,1],"name":"instance_3"},"instance_4":{"children":["tail"],"matrix":[1,0,0,0,0,0.996917,0.0784591,0,0,-0.0784591,0.996917,0,28.8887,0.415234,4.68719,1],"name":"instance_4"},"instance_5":{"children":["node73"],"matrix":[1,0,0,0,0,-0.996917,0.0784591,0,0,0.0784591,0.996917,0,28.8887,-0.651688,4.68541,1],"name":"instance_5"},"instance_6":{"children":["wheel"],"matrix":[6.93889e-17,1,0,0,-1,6.93889e-17,0,0,0,0,1,0,14.6748,2.10376,0.11811,1],"name":"instance_6"},"node68":{"children":[],"matrix":[1,0,0,0,0,1,0,0,0,0,1,0,0,0,0,1],"meshes":["ID125"],"name":"ID125"},"node69":{"children":[],"matrix":[1,0,0,0,0,1,0,0,0,0,1,0,0,0,0,1],"meshes":["ID131"],"name":"ID131"},"node70":{"children":[],"matrix":[1,0,0,0,0,1,0,0,0,0,1,0,0,0,0,1],"meshes":["ID16"],"name":"ID16"},"node71":{"children":[],"matrix":[1,0,0,0,0,1,0,0,0,0,1,0,0,0,0,1],"meshes":["ID22"],"name":"ID22"},"node72":{"children":[],"matrix":[1,0,0,0,0,1,0,0,0,0,1,0,0,0,0,1],"meshes":["ID28"],"name":"ID28"},"node73":{"children":[],"matrix":[1,0,0,0,0,1,0,0,0,0,1,0,0,0,0,1],"meshes":["ID58"],"name":"tail"},"node74":{"children":[],"matrix":[1,0,0,0,0,1,0,0,0,0,1,0,0,0,0,1],"meshes":["ID66"],"name":"wheel"},"node75":{"children":[],"matrix":[1,0,0,0,0,1,0,0,0,0,1,0,0,0,0,1],"meshes":["ID77"],"name":"ID77"},"node76":{"children":[],"matrix":[1,0,0,0,0,1,0,0,0,0,1,0,0,0,0,1],"meshes":["ID83"],"name":"ID83"},"node77":{"children":[],"matrix":[1,0,0,0,0,1,0,0,0,0,1,0,0,0,0,1],"meshes":["ID89"],"name":"ID89"},"node78":{"children":[],"matrix":[1,0,0,0,0,1,0,0,0,0,1,0,0,0,0,1],"meshes":["ID77"],"name":"ID77"},"node79":{"children":[],"matrix":[1,0,0,0,0,1,0,0,0,0,1,0,0,0,0,1],"meshes":["ID83"],"name":"ID83"},"node80":{"children":[],"matrix":[1,0,0,0,0,1,0,0,0,0,1,0,0,0,0,1],"meshes":["ID89"],"name":"ID89"},"node81":{"children":[],"matrix":[1,0,0,0,0,1,0,0,0,0,1,0,0,0,0,1],"meshes":["ID97"],"name":"Component_2"},"node82":{"children":[],"matrix":[1,0,0,0,0,1,0,0,0,0,1,0,0,0,0,1],"meshes":["ID66"],"name":"wheel"},"node83":{"children":[],"matrix":[1,0,0,0,0,1,0,0,0,0,1,0,0,0,0,1],"meshes":["ID66"],"name":"wheel"},"node84":{"children":[],"matrix":[1,0,0,0,0,1,0,0,0,0,1,0,0,0,0,1],"meshes":["ID66"],"name":"wheel"},"node85":{"children":[],"matrix":[1,0,0,0,0,1,0,0,0,0,1,0,0,0,0,1],"meshes":["ID66"],"name":"wheel"},"node86":{"children":[],"matrix":[1,0,0,0,0,1,0,0,0,0,1,0,0,0,0,1],"meshes":["ID66"],"name":"wheel"},"node87":{"children":[],"matrix":[1,0,0,0,0,1,0,0,0,0,1,0,0,0,0,1],"meshes":["ID66"],"name":"wheel"},"node88":{"children":[],"matrix":[1,0,0,0,0,1,0,0,0,0,1,0,0,0,0,1],"meshes":["ID66"],"name":"wheel"},"node89":{"children":[],"matrix":[1,0,0,0,0,1,0,0,0,0,1,0,0,0,0,1],"meshes":["ID66"],"name":"wheel"},"node90":{"children":[],"matrix":[1,0,0,0,0,1,0,0,0,0,1,0,0,0,0,1],"meshes":["ID66"],"name":"wheel"},"node91":{"children":[],"matrix":[1,0,0,0,0,1,0,0,0,0,1,0,0,0,0,1],"meshes":["ID66"],"name":"wheel"},"node_64":{"children":["SketchUp"],"matrix":[1,0,0,0,0,0,-1,0,0,1,0,0,0,0,0,1],"name":"Y_UP_Transform"},"tail":{"children":[],"matrix":[1,0,0,0,0,1,0,0,0,0,1,0,0,0,0,1],"meshes":["ID50"],"name":"tail"},"wheel":{"children":[],"matrix":[1,0,0,0,0,1,0,0,0,0,1,0,0,0,0,1],"meshes":["ID66"],"name":"wheel"},"wheel_2":{"children":[],"matrix":[1,0,0,0,0,1,0,0,0,0,1,0,0,0,0,1],"meshes":["ID106"],"name":"wheel_2"},"wing":{"children":[],"matrix":[1,0,0,0,0,1,0,0,0,0,1,0,0,0,0,1],"meshes":["ID34"],"name":"wing"}},"programs":{"program_0":{"attributes":["a_position"],"fragmentShader":"model0FS","vertexShader":"model0VS"},"program_1":{"attributes":["a_normal","a_position"],"fragmentShader":"model1FS","vertexShader":"model1VS"}},"scene":"defaultScene","scenes":{"defaultScene":{"nodes":["node_64"]}},"shaders":{"model0FS":{"type":35632,"uri":"data:text/plain;base64,"},"model0VS":{"type":35633,"uri":"data:text/plain;base64,"},"model1FS":{"type":35632,"uri":"data:text/plain;base64,"},"model1VS":{"type":35633,"uri":"data:text/plain;base64,"}},"skins":{},"techniques":{"technique0":{"parameters":{"modelViewMatrix":{"semantic":"MODELVIEW","type":35676},"position":{"semantic":"POSITION","type":35665},"projectionMatrix":{"semantic":"PROJECTION","type":35676}},"pass":"defaultPass","passes":{"defaultPass":{"details":{"commonProfile":{"extras":{"doubleSided":false},"lightingModel":"Constant","parameters":["modelViewMatrix","projectionMatrix"]},"type":"COLLADA-1.4.1/commonProfile"},"instanceProgram":{"attributes":{"a_position":"position"},"program":"program_0","uniforms":{"u_modelViewMatrix":"modelViewMatrix","u_projectionMatrix":"projectionMatrix"}},"states":{"enable":[2884,2929]}}}},"technique1":{"parameters":{"ambient":{"type":35666},"diffuse":{"type":35666},"modelViewMatrix":{"semantic":"MODELVIEW","type":35676},"normal":{"semantic":"NORMAL","type":35665},"normalMatrix":{"semantic":"MODELVIEWINVERSETRANSPOSE","type":35675},"position":{"semantic":"POSITION","type":35665},"projectionMatrix":{"semantic":"PROJECTION","type":35676}},"pass":"defaultPass","passes":{"defaultPass":{"details":{"commonProfile":{"extras":{"doubleSided":false},"lightingModel":"Lambert","parameters":["ambient","diffuse","modelViewMatrix","normalMatrix","projectionMatrix"]},"type":"COLLADA-1.4.1/commonProfile"},"instanceProgram":{"attributes":{"a_normal":"normal","a_position":"position"},"program":"program_1","uniforms":{"u_ambient":"ambient","u_diffuse":"diffuse","u_modelViewMatrix":"modelViewMatrix","u_normalMatrix":"normalMatrix","u_projectionMatrix":"projectionMatrix"}},"states":{"enable":[2884,2929]}}}}}}